# xmcd CD database file
#
# Track frame offsets:
#	150
#	9957
#	21830
#	33908
#	43415
#	50836
#	62210
#	74542
#	86449
#	95703
#	105103
#	116822
#	127520
#	153809
#
# Disc length: 2359 seconds
#
# Revision: 0
# Processed by: cddbd v1.4PL0 Copyright (c) Steve Scherf et al.
# Submitted via: CDex 1.50beta9
#
DISCID=af09350e
DTITLE=Banjo Band Ivana Mladka - ... a vo tom to je!
DYEAR=2002
DGENRE=Country
TTITLE0=Linda
TTITLE1=Jozin z bazin
TTITLE2=Praha - Prcice
TTITLE3=Medvedi nevedi
TTITLE4=Neopatrny krecek
TTITLE5=Dasa Novakova
TTITLE6=Rychlik jede do Prahy
TTITLE7=Kdyz je v Praze hic
TTITLE8=Brno je zlata lod
TTITLE9=Mravenci v kredenci
TTITLE10=Prachovske skaly
TTITLE11=Jez
TTITLE12=BONUS - 10 anekdot v Cdur
TTITLE13=BONUS - povidka Kozisek
EXTD=YEAR: 2002
EXTT0=
EXTT1=
EXTT2=
EXTT3=
EXTT4=
EXTT5=
EXTT6=
EXTT7=
EXTT8=
EXTT9=
EXTT10=
EXTT11=
EXTT12=
EXTT13=
PLAYORDER=
